<?xml version="1.0" encoding="UTF-8"?>
<svg version="1.1" xmlns="http://www.w3.org/2000/svg" width="205" height="227">
<path d="M0 0 C0.99 0.33 1.98 0.66 3 1 C3.268125 2.175625 3.53625 3.35125 3.8125 4.5625 C5.62721869 12.48255132 10.50100835 16.89373562 17 21.44140625 C17.60370422 21.86820175 18.20740845 22.29499725 18.82940674 22.73472595 C28.18554291 29.29648889 37.78516346 35.51359522 47.35205078 41.76196289 C73.29755862 58.72708611 73.29755862 58.72708611 77.5625 68.25 C78.01753906 69.22453125 78.47257812 70.1990625 78.94140625 71.203125 C80.66549382 75.75827886 81.12361751 79.8835263 81.09765625 84.73828125 C81.09282227 86.33833008 81.09282227 86.33833008 81.08789062 87.97070312 C81.07532227 89.62489258 81.07532227 89.62489258 81.0625 91.3125 C81.05798828 92.43462891 81.05347656 93.55675781 81.04882812 94.71289062 C81.03707313 97.4753151 81.02064077 100.23762998 81 103 C77.05764949 101.51729179 74.6146423 99.98769011 71.5625 97.0625 C56.44789018 83.08988292 39.16867491 71.71640953 22.14526367 60.23974609 C-5.68679425 41.43032533 -5.68679425 41.43032533 -8.59765625 30.5859375 C-9.9566374 21.85151496 -10.35096756 13.38536098 -5 6 C-3.40587292 3.90460349 -1.76437712 1.96041902 0 0 Z " fill="#0593DA" transform="translate(60,75)"/>
<path d="M0 0 C9.85628078 0.47691681 17.80564665 3.75525114 24.5390625 11.13671875 C32.97328135 21.89373049 33.4479198 35.93174333 33.29296875 49.05078125 C33.28735503 50.44467201 33.28309337 51.83856879 33.28010559 53.23246765 C33.26879614 56.85416784 33.23945399 60.4754917 33.20599365 64.0970459 C33.17498791 67.81139031 33.16153594 71.52579712 33.14648438 75.24023438 C33.11456658 82.49365886 33.06354514 89.74677618 33 97 C24.69017572 97 15.90909828 87.44057728 9.9609375 82.17578125 C5.31969546 77.02603659 5.75710156 71.6453185 5.875 65.08203125 C5.88635986 63.62515144 5.88635986 63.62515144 5.89794922 62.13883972 C5.93037078 58.00453264 5.98589048 53.87063 6.04101562 49.73657227 C6.16661541 39.42334255 6.25698162 29.19113907 5.1328125 18.92578125 C5.05538818 18.21452591 4.97796387 17.50327057 4.89819336 16.77046204 C4.1553207 10.83406241 2.46546654 5.43360101 0 0 Z " fill="#84C227" transform="translate(62,3)"/>
<path d="M0 0 C7.04615025 3.69922888 11.71014129 10.38310955 15.203125 17.42578125 C17.07436242 23.47061193 17.27782393 30.65451608 15.0078125 36.59765625 C8.9910511 46.2346724 -1.01136318 52.90363902 -10.01586914 59.52929688 C-15.16830686 63.32550768 -20.05093941 67.32800656 -24.86328125 71.55078125 C-25.56839844 72.02902344 -26.27351563 72.50726563 -27 73 C-27.99 72.67 -28.98 72.34 -30 72 C-30.09903473 67.51601216 -30.17154483 63.03260708 -30.21972656 58.54785156 C-30.23981599 57.02299915 -30.26709316 55.49822352 -30.30175781 53.97363281 C-30.35039796 51.77910402 -30.37299396 49.58559531 -30.390625 47.390625 C-30.41157227 46.07094727 -30.43251953 44.75126953 -30.45410156 43.39160156 C-29.92304901 39.42526711 -29.10740402 38.40909925 -26 36 C-25.452229 35.56816406 -24.90445801 35.13632812 -24.34008789 34.69140625 C-23.80633545 34.31886719 -23.27258301 33.94632813 -22.72265625 33.5625 C-22.12646484 33.14226563 -21.53027344 32.72203125 -20.91601562 32.2890625 C-20.30435547 31.86367188 -19.69269531 31.43828125 -19.0625 31 C-10.86409603 25.5693863 -10.86409603 25.5693863 -4.25 18.4375 C-3.84265625 17.85871094 -3.4353125 17.27992187 -3.015625 16.68359375 C-0.90916428 13.19173002 -0.73722225 9.79452412 -0.4375 5.8125 C-0.35371094 4.72582031 -0.26992187 3.63914062 -0.18359375 2.51953125 C-0.09271484 1.27236328 -0.09271484 1.27236328 0 0 Z " fill="#0393DB" transform="translate(130,17)"/>
<path d="M0 0 C5.14128006 1.65255431 9.16736171 4.75460247 13.5 7.875 C14.61955078 8.66970703 14.61955078 8.66970703 15.76171875 9.48046875 C17.85327437 10.9723217 19.93859214 12.46671736 22 14 C23.3471106 14.84570557 23.3471106 14.84570557 24.72143555 15.70849609 C27.33708713 18.33900137 27.56857084 19.8328822 27.56648254 23.48455811 C27.54067612 24.18574768 27.51486969 24.88693726 27.48828125 25.609375 C27.48120651 26.33618469 27.47413177 27.06299438 27.46684265 27.81182861 C27.4389273 30.12561457 27.37620383 32.43694998 27.3125 34.75 C27.28741299 36.32157954 27.26460051 37.89319716 27.24414062 39.46484375 C27.18911132 43.3108352 27.10286666 47.15500265 27 51 C17.71076268 49.14315827 10.24836832 46.51627265 4.21484375 38.828125 C0.19370728 32.77702574 -1.12447909 26.48504064 -1.1328125 19.296875 C-1.13410156 18.2346875 -1.13539062 17.1725 -1.13671875 16.078125 C-1.13285156 14.97984375 -1.12898438 13.8815625 -1.125 12.75 C-1.13080078 11.079375 -1.13080078 11.079375 -1.13671875 9.375 C-1.13542969 8.31796875 -1.13414063 7.2609375 -1.1328125 6.171875 C-1.13168457 5.2034668 -1.13055664 4.23505859 -1.12939453 3.23730469 C-1 1 -1 1 0 0 Z " fill="#87C12A" transform="translate(68,133)"/>
<path d="M0 0 C2.23477534 2.07514853 2.95593843 3.87075272 3.9375 6.75 C4.0541622 12.81643447 1.49285302 16.43605874 -2.54296875 20.6640625 C-10.61035846 28.21975543 -10.61035846 28.21975543 -16 30 C-14.6416498 19.91961167 -12.79025517 9.57199655 -7 1 C-4.4254716 -0.2872642 -2.85291355 -0.34791629 0 0 Z " fill="#BACF07" transform="translate(121,15)"/>
<path d="M0 0 C0.33 0 0.66 0 1 0 C1.79969527 4.21174985 2.12212867 8.17992111 2.11352539 12.46435547 C2.11344986 13.72520966 2.11337433 14.98606384 2.11329651 16.28512573 C2.10819109 17.6458134 2.10297511 19.00650065 2.09765625 20.3671875 C2.09578912 21.77108713 2.09436661 23.17498742 2.09336853 24.57888794 C2.08956658 28.25807522 2.07975633 31.93722248 2.06866455 35.61639404 C2.05840031 39.37706969 2.0538602 43.13775186 2.04882812 46.8984375 C2.03813179 54.26564317 2.02108352 61.63281596 2 69 C-1 69 -1 69 -3.1875 67 C-3.785625 66.34 -4.38375 65.68 -5 65 C-3.35 65.33 -1.7 65.66 0 66 C0 44.22 0 22.44 0 0 Z " fill="#95BA54" transform="translate(93,31)"/>
<path d="M0 0 C6.81987029 0.43300764 11.91643021 1.90787824 18 5 C14.65454988 6.77410234 11.78880439 7.58817344 8 8 C7.34 7.67 6.68 7.34 6 7 C6 8.65 6 10.3 6 12 C6.66 12.33 7.32 12.66 8 13 C7.67 18.28 7.34 23.56 7 29 C6.67 29 6.34 29 6 29 C5.85304688 27.24236328 5.85304688 27.24236328 5.703125 25.44921875 C4.87298208 16.44418117 3.78109159 8.33308536 0 0 Z " fill="#86C125" transform="translate(62,3)"/>
<path d="M0 0 C0.33 0 0.66 0 1 0 C1.17533513 3.12472258 1.34209698 6.24937079 1.5 9.375 C1.57371826 10.8288208 1.57371826 10.8288208 1.64892578 12.31201172 C1.90410665 17.91798856 2.02063885 23.49744765 1.9609375 29.109375 C1.94869141 30.27807129 1.93644531 31.44676758 1.92382812 32.65087891 C1.89165715 34.93984349 1.84640347 37.22866723 1.78710938 39.51708984 C1.77228516 40.56590332 1.75746094 41.6147168 1.7421875 42.6953125 C1.7201123 43.62359863 1.69803711 44.55188477 1.67529297 45.50830078 C2.05935464 48.4554688 3.04847246 49.80573557 5 52 C4.67 52.66 4.34 53.32 4 54 C-0.06031029 49.1538232 -1.12631473 46.24613681 -1.1328125 39.9609375 C-1.13474609 38.74752686 -1.13667969 37.53411621 -1.13867188 36.28393555 C-1.13416016 34.99398682 -1.12964844 33.70403809 -1.125 32.375 C-1.12306641 31.07022705 -1.12113281 29.7654541 -1.11914062 28.42114258 C-1.07673192 18.91393583 -0.76799505 9.47651035 0 0 Z " fill="#98C350" transform="translate(69,32)"/>
<path d="M0 0 C0.66 0.33 1.32 0.66 2 1 C2 10.9 2 20.8 2 31 C3.65 30.67 5.3 30.34 7 30 C4.525 32.475 4.525 32.475 2 35 C1.01 34.67 0.02 34.34 -1 34 C-1.02468857 29.4793335 -1.04285449 24.9587061 -1.05493164 20.43798828 C-1.05996552 18.89956987 -1.06679308 17.36115625 -1.07543945 15.82275391 C-1.08754639 13.61359474 -1.09323769 11.40449874 -1.09765625 9.1953125 C-1.10281754 8.50567413 -1.10797882 7.81603577 -1.11329651 7.10549927 C-1.11387171 2.22774341 -1.11387171 2.22774341 0 0 Z " fill="#46AAE7" transform="translate(101,55)"/>
<path d="M0 0 C0.99 0.33 1.98 0.66 3 1 C3.55571552 2.96134888 4.10069675 4.92846548 4.52734375 6.921875 C5.09204107 9.40467642 5.98087547 11.67057249 7 14 C6.2575 13.54625 5.515 13.0925 4.75 12.625 C0.17775909 9.7843439 0.17775909 9.7843439 -5 9 C-5 4.61031544 -2.87194899 3.23094261 0 0 Z " fill="#1C93CC" transform="translate(60,75)"/>
<path d="M0 0 C0.66 0.33 1.32 0.66 2 1 C1.65066406 1.74765625 1.30132812 2.4953125 0.94140625 3.265625 C0.48636719 4.25046875 0.03132813 5.2353125 -0.4375 6.25 C-0.88996094 7.22453125 -1.34242187 8.1990625 -1.80859375 9.203125 C-2.79228375 11.51237759 -3.44263879 13.57149757 -4 16 C-4.50139889 17.42366111 -5.02224046 18.84062729 -5.5625 20.25 C-5.83191406 20.95640625 -6.10132812 21.6628125 -6.37890625 22.390625 C-6.58386719 22.92171875 -6.78882812 23.4528125 -7 24 C-5.68 24 -4.36 24 -3 24 C-3 23.34 -3 22.68 -3 22 C-2.01 22.33 -1.02 22.66 0 23 C-1.1196986 24.00593243 -2.2459412 25.0045849 -3.375 26 C-4.00148438 26.556875 -4.62796875 27.11375 -5.2734375 27.6875 C-7 29 -7 29 -9 29 C-7.62060477 18.76343542 -5.61466391 8.8139026 0 0 Z " fill="#C0CF37" transform="translate(114,16)"/>
<path d="M0 0 C2.475 0.99 2.475 0.99 5 2 C4.01 2.33 3.02 2.66 2 3 C1.97108051 7.29165262 1.95322882 11.58328036 1.9375 15.875 C1.92912109 17.09832031 1.92074219 18.32164062 1.91210938 19.58203125 C1.90888672 20.74863281 1.90566406 21.91523438 1.90234375 23.1171875 C1.89710693 24.19597168 1.89187012 25.27475586 1.88647461 26.38623047 C1.82116894 28.98232186 1.82116894 28.98232186 3 31 C2.34 31.66 1.68 32.32 1 33 C-1.11194018 26.11323853 -1.26934979 19.7351267 -1.1875 12.5625 C-1.18685547 11.46228516 -1.18621094 10.36207031 -1.18554688 9.22851562 C-1.14058618 1.14058618 -1.14058618 1.14058618 0 0 Z " fill="#A4C967" transform="translate(68,133)"/>
<path d="M0 0 C5.52628901 1.19194469 8.17819158 2.5991297 12 7 C8.04 7 4.08 7 0 7 C0 4.69 0 2.38 0 0 Z " fill="#87BF2B" transform="translate(69,135)"/>
<path d="M0 0 C2.3125 -0.25 2.3125 -0.25 5 0 C7.23477534 2.07514853 7.95593843 3.87075272 8.9375 6.75 C9.02262876 11.17669543 7.50757976 14.38517723 5 18 C4.01 18.66 3.02 19.32 2 20 C2.2165625 19.34773438 2.433125 18.69546875 2.65625 18.0234375 C5.47776541 10.02173704 5.47776541 10.02173704 4 2 C1.98330173 0.86649466 1.98330173 0.86649466 0 0 Z " fill="#BDCF3E" transform="translate(116,15)"/>
<path d="M0 0 C5.875 3.75 5.875 3.75 7 6 C5.35 5.67 3.7 5.34 2 5 C1.99742187 5.64066406 1.99484375 6.28132813 1.9921875 6.94140625 C1.68541235 13.80294377 0.0374148 17.34770866 -5 22 C-5 19 -5 19 -3.0625 16.0625 C-0.05012081 11.12347547 -0.18542214 5.64610402 0 0 Z " fill="#2C97C6" transform="translate(130,17)"/>
<path d="M0 0 C0.33 0 0.66 0 1 0 C1.02886984 3.97915159 1.04675406 7.95827653 1.0625 11.9375 C1.07087891 13.07380859 1.07925781 14.21011719 1.08789062 15.38085938 C1.09111328 16.46044922 1.09433594 17.54003906 1.09765625 18.65234375 C1.10289307 19.65257568 1.10812988 20.65280762 1.11352539 21.68334961 C1 24 1 24 0 25 C-4.07279689 24.61577388 -7.46574118 24.12055529 -11 22 C-10.01 21.34 -9.02 20.68 -8 20 C-7.34 20.66 -6.68 21.32 -6 22 C-4.35 22.33 -2.7 22.66 -1 23 C-0.67 15.41 -0.34 7.82 0 0 Z " fill="#94C43A" transform="translate(93,158)"/>
<path d="M0 0 C0.99 0.495 0.99 0.495 2 1 C2.33333333 3 2.66666667 5 3 7 C3.66 7.33 4.32 7.66 5 8 C4.67 13.28 4.34 18.56 4 24 C3.67 24 3.34 24 3 24 C2.86722656 22.77023438 2.73445313 21.54046875 2.59765625 20.2734375 C2.41935957 18.64061531 2.2409692 17.00780334 2.0625 15.375 C1.97548828 14.56675781 1.88847656 13.75851563 1.79882812 12.92578125 C1.32290463 8.58958942 0.77162811 4.29609164 0 0 Z " fill="#9ABF4E" transform="translate(65,8)"/>
<path d="M0 0 C3.08089673 2.77280706 4.68775452 5.06326356 6 9 C3 8 3 8 1 6 C0.01 6.33 -0.98 6.66 -2 7 C-2.66 6.67 -3.32 6.34 -4 6 C-4 5.34 -4 4.68 -4 4 C-3.01 4 -2.02 4 -1 4 C-0.67 2.68 -0.34 1.36 0 0 Z " fill="#1592D5" transform="translate(137,23)"/>
<path d="M0 0 C1.32 0.66 2.64 1.32 4 2 C0.7 4.64 -2.6 7.28 -6 10 C-6.33 9.34 -6.66 8.68 -7 8 C-7.66 7.67 -8.32 7.34 -9 7 C-8.34 6.67 -7.68 6.34 -7 6 C-6.34 6.33 -5.68 6.66 -5 7 C-5 6.34 -5 5.68 -5 5 C-3.35 4.67 -1.7 4.34 0 4 C-0.33 3.01 -0.66 2.02 -1 1 C-0.67 0.67 -0.34 0.34 0 0 Z " fill="#1F96CD" transform="translate(129,64)"/>
<path d="M0 0 C5.7266425 2.9826263 10.26638344 6.62294157 15 11 C14.01 11.495 14.01 11.495 13 12 C10.875 11.0625 10.875 11.0625 9 10 C9 9.01 9 8.02 9 7 C8.443125 6.731875 7.88625 6.46375 7.3125 6.1875 C4.78774666 4.89100504 2.36285516 3.57523677 0 2 C0 1.34 0 0.68 0 0 Z " fill="#2A93D0" transform="translate(117,124)"/>
<path d="M0 0 C4.47014404 2.50328066 8.76946537 5.1108544 13 8 C9.59068103 9.13643966 8.99664544 8.86747764 5.8125 7.5625 C5.09707031 7.27503906 4.38164063 6.98757812 3.64453125 6.69140625 C2.83048828 6.34916016 2.83048828 6.34916016 2 6 C2 5.01 2 4.02 2 3 C1.34 2.67 0.68 2.34 0 2 C0 1.34 0 0.68 0 0 Z " fill="#228FC5" transform="translate(71,93)"/>
<path d="M0 0 C0.33 0.66 0.66 1.32 1 2 C-1.57784846 4.64752004 -3.91648098 6.94432065 -7 9 C-8.32 8.67 -9.64 8.34 -11 8 C-7.37 5.36 -3.74 2.72 0 0 Z " fill="#2193CA" transform="translate(117,44)"/>
<path d="M0 0 C0.66 0 1.32 0 2 0 C2 0.66 2 1.32 2 2 C3.32 1.67 4.64 1.34 6 1 C6.28875 1.763125 6.5775 2.52625 6.875 3.3125 C7.96269013 6.15029308 7.96269013 6.15029308 10 9 C4.98709528 7.56774151 3.01961382 5.05490999 0 1 C0 0.67 0 0.34 0 0 Z " fill="#9AC34E" transform="translate(72,170)"/>
<path d="M0 0 C0.33 0.66 0.66 1.32 1 2 C1.99 2 2.98 2 4 2 C4.144375 2.61875 4.28875 3.2375 4.4375 3.875 C4.93152225 6.03258322 4.93152225 6.03258322 6 8 C2.4213696 6.34832443 -0.74820188 4.21713508 -4 2 C-2.68 1.34 -1.36 0.68 0 0 Z " fill="#1D93CD" transform="translate(105,146)"/>
<path d="M0 0 C0.33 0 0.66 0 1 0 C0.72694671 6.55327899 -1.81211141 10.06930548 -6 15 C-6.66 13.68 -7.32 12.36 -8 11 C-6.68 11 -5.36 11 -4 11 C-3.896875 10.484375 -3.79375 9.96875 -3.6875 9.4375 C-2.75736134 6.13973565 -1.38604488 3.13366668 0 0 Z " fill="#2E98D0" transform="translate(145,46)"/>
<path d="M0 0 C3.08496658 3.49629546 4.93180036 6.43587428 6 11 C5.625 13.375 5.625 13.375 5 15 C4.67 13.35 4.34 11.7 4 10 C3.34 10 2.68 10 2 10 C2 8.02 2 6.04 2 4 C1.34 4 0.68 4 0 4 C0 2.68 0 1.36 0 0 Z " fill="#9CC355" transform="translate(87,16)"/>
<path d="M0 0 C3.93673644 1.31224548 6.22719294 2.91910327 9 6 C6.36 6 3.72 6 1 6 C1.33 5.01 1.66 4.02 2 3 C1.34 3 0.68 3 0 3 C0 2.01 0 1.02 0 0 Z " fill="#8DBB43" transform="translate(81,142)"/>
<path d="M0 0 C0.99 0.33 1.98 0.66 3 1 C1.8803014 2.00593243 0.7540588 3.0045849 -0.375 4 C-1.00148438 4.556875 -1.62796875 5.11375 -2.2734375 5.6875 C-4 7 -4 7 -6 7 C-6 6.01 -6 5.02 -6 4 C-5.34 4 -4.68 4 -4 4 C-4 3.34 -4 2.68 -4 2 C-2.68 2 -1.36 2 0 2 C0 1.34 0 0.68 0 0 Z " fill="#B4C43D" transform="translate(111,38)"/>
<path d="M0 0 C2.79872437 2.52788007 4.45773019 4.20411134 5 8 C0.125 6.25 0.125 6.25 -1 4 C-0.5625 1.875 -0.5625 1.875 0 0 Z " fill="#1C94D1" transform="translate(132,136)"/>
<path d="M0 0 C1.43836751 0.11458693 2.87570966 0.24209116 4.3125 0.375 C5.51326172 0.47941406 5.51326172 0.47941406 6.73828125 0.5859375 C9 1 9 1 12 3 C9.03 2.67 6.06 2.34 3 2 C2.67 2.99 2.34 3.98 2 5 C1.34 3.35 0.68 1.7 0 0 Z " fill="#9AB95F" transform="translate(62,3)"/>
<path d="M0 0 C3.65316671 1.24976756 4.78065836 1.67098753 7 5 C3.28400809 5.20086443 2.22791555 5.1519437 -1 3 C-0.67 2.01 -0.34 1.02 0 0 Z " fill="#95C053" transform="translate(74,137)"/>
<path d="M0 0 C1.65 0.33 3.3 0.66 5 1 C2.63707344 3.52588702 1.33537489 4.88820837 -2 6 C-2 4.68 -2 3.36 -2 2 C-1.34 2 -0.68 2 0 2 C0 1.34 0 0.68 0 0 Z " fill="#2192CB" transform="translate(116,74)"/>
<path d="M0 0 C2.31 1.98 4.62 3.96 7 6 C6.01 6.495 6.01 6.495 5 7 C2.375 6.0625 2.375 6.0625 0 5 C0 3.35 0 1.7 0 0 Z " fill="#91BD44" transform="translate(80,9)"/>
<path d="M0 0 C2.64 1.32 5.28 2.64 8 4 C3.23374833 5.19156292 2.12120649 4.3415946 -2 2 C-1.34 1.34 -0.68 0.68 0 0 Z " fill="#99BF50" transform="translate(84,178)"/>
<path d="M0 0 C2.64 1.65 5.28 3.3 8 5 C6.02 5.99 6.02 5.99 4 7 C3.896875 6.360625 3.79375 5.72125 3.6875 5.0625 C3.460625 4.381875 3.23375 3.70125 3 3 C2.01 2.67 1.02 2.34 0 2 C0 1.34 0 0.68 0 0 Z " fill="#2592C3" transform="translate(95,109)"/>
<path d="M0 0 C5.75 0.75 5.75 0.75 8 3 C5.69 3.33 3.38 3.66 1 4 C0.67 2.68 0.34 1.36 0 0 Z " fill="#92BE40" transform="translate(72,6)"/>
<path d="M0 0 C0.33 0.66 0.66 1.32 1 2 C2.65 1.67 4.3 1.34 6 1 C4.37660195 2.70884005 2.70680947 4.37446717 1 6 C0.34 6 -0.32 6 -1 6 C-0.67 4.02 -0.34 2.04 0 0 Z " fill="#2393C5" transform="translate(102,84)"/>
</svg>
